# xmcd
#
# Track frame offsets:
#	150
#	15675
#	38600
#	57307
#	73710
#	92770
#	112435
#	136857
#	154500
#	167910
#	185795
#	203570
#	217050
#	238550
#	261840
#	272670
#
# Disc length: 3895
#
# Revision: 2
# Processed by: cddbd v1.5.1PL0 Copyright (c) Steve Scherf et al.
# Submitted via: audiograbber 1.80.04
# Normalized: r1:DSETVAR1,TDELIM( - )
#
DISCID=eb0f3510
DTITLE=Various Artist - Christmas Blues
DYEAR=1900
DGENRE=Blues
TTITLE0=Charles Brown - Santa´s Blues
TTITLE1=Lowell Fulson - Lonesome Christmas
TTITLE2=Bobby Parker - Sandy Claw Stole My Woman
TTITLE3=Alanda Williams and The Soul Kings - Alone At Christmas
TTITLE4=Rod Piazza and The Mighty Flyers - No More Pretty Presents
TTITLE5=Little Jimmy King and The Memphis Horns - Happy Christmas Tears
TTITLE6=Earl King - Santa, Don´t Let Me Down
TTITLE7=Larry Davis and The Memphis Horns - Help The Poor
TTITLE8=Marc Wilson and Mark 'Kaz' Kazanoff - Good King Wenceslaus
TTITLE9=Michelle 'Evil Gal' Willson - Five Pound Box Of Money
TTITLE10=Anson Funderburgh and The Rockets - Young Girls Drive Me Wild
TTITLE11=Robert Ward - Wouldn´t It Be A Merry Christmas
TTITLE12=Grady Gaines - Grady and Santa Is Coming To Town
TTITLE13=Jimmy Dawkins - Christmas Time Blues
TTITLE14=Rick Holmstrom - Sleigh Ride
TTITLE15=Charles Brown and Johnny Otis - Christmas Comes But Once A Year
EXTD=
EXTT0=
EXTT1=
EXTT2=
EXTT3=
EXTT4=
EXTT5=
EXTT6=
EXTT7=
EXTT8=
EXTT9=
EXTT10=
EXTT11=
EXTT12=
EXTT13=
EXTT14=
EXTT15=
PLAYORDER=
